<?xml version="1.0" encoding="UTF-8" standalone="no"?>
<!DOCTYPE svg PUBLIC "-//W3C//DTD SVG 1.1//EN" "http://www.w3.org/Graphics/SVG/1.1/DTD/svg11.dtd">
<svg width="100%" height="100%" viewBox="0 0 3544 3544" version="1.1" xmlns="http://www.w3.org/2000/svg" xmlns:xlink="http://www.w3.org/1999/xlink" xml:space="preserve" xmlns:serif="http://www.serif.com/" style="fill-rule:evenodd;clip-rule:evenodd;stroke-linejoin:round;stroke-miterlimit:1.41421;">
    <g transform="matrix(1,0,0,0.97642,0,136.105)">
        <rect x="-881.744" y="-583.092" width="5738.26" height="2528.44" style="fill:rgb(35,195,249);"/>
    </g>
    <g transform="matrix(0.976131,0,0,0.703853,95.6313,1243.11)">
        <rect x="-669.006" y="1080.67" width="4675.44" height="3116.96" style="fill:url(#_Linear1);"/>
    </g>
    <g transform="matrix(2.29535,0.0105622,0,0.854512,-2295.51,652.46)">
        <path d="M2521.73,3601.51L1022.1,3601.51C1203.19,2853.36 1423.56,2147.33 1722.69,1541.89L1821.15,1541.89C2218.26,2284.26 2380.96,2944.01 2521.73,3601.51Z" style="fill:white;"/>
    </g>
    <g transform="matrix(1,0,0,0.454797,60.3849,1353.75)">
        <path d="M3581.93,1444.24C2342.57,1072.57 1098.58,1061.09 -159.395,1444.24L-159.395,1736.17C1228.23,1344.96 2473.12,1349.7 3581.93,1736.17L3581.93,1444.24Z" style="fill:white;"/>
    </g>
    <path d="M-263.355,1912.95C-263.355,1912.95 233.614,1712.42 407.99,1538.05C695.709,1668.83 870.084,1677.55 870.084,1677.55C870.084,1677.55 913.678,1633.95 1088.05,1546.76C1349.62,1642.67 1462.96,1694.98 1462.96,1694.98C1462.96,1694.98 2317.4,1442.14 2395.87,1259.05C2701.02,1555.48 2831.8,1668.83 2953.87,1738.58C3180.56,1651.39 3128.24,1694.98 3128.24,1694.98L3694.96,1991.42L3694.96,2087.33C3694.96,2087.33 1358.33,1686.26 -420.293,2191.95C-2198.92,2697.64 -263.355,1912.95 -263.355,1912.95Z" style="fill:rgb(100,155,207);"/>
    <path d="M476.456,1645.34L370.055,1614.9L570.039,1832.94L753.169,1992.02C851.761,1990.07 1185.98,1967 1295.76,1959.58L975.25,1777.3L783.796,1624.75L773.858,1641.1L645.602,1596.69L628.4,1619.45L403.544,1537.3L476.456,1645.34Z" style="fill:white;"/>
    <path d="M1218.4,1654.14L1158.73,1659.01L1590.09,1969.43L1994.7,1964.27L1320.66,1607.48L1321.83,1621.53L1074.84,1541.22" style="fill:white;"/>
    <g transform="matrix(0.829177,0,0,1.85067,1470.69,-1640.45)">
        <path d="M1218.4,1654.14L1158.73,1659.01L1590.09,1969.43L2201.43,2010.58L1601.82,1706.28L1542.34,1716.62L1100.68,1564.38" style="fill:white;"/>
    </g>
    <g transform="matrix(0.469054,0,0,0.922253,2599.17,276.192)">
        <path d="M1272.98,1626.39L1189.92,1629.27L1734.33,1949.6L2201.43,2010.58C3012.7,1879.38 1869.65,1739.35 1582.32,1603.19L1526.75,1639.3L1073.4,1512.83" style="fill:white;"/>
    </g>
    <defs>
        <linearGradient id="_Linear1" x1="0" y1="0" x2="1" y2="0" gradientUnits="userSpaceOnUse" gradientTransform="matrix(4675.44,0,0,3116.96,-669.006,2639.15)"><stop offset="0" style="stop-color:rgb(67,122,53);stop-opacity:1"/><stop offset="0.48" style="stop-color:rgb(67,122,53);stop-opacity:1"/><stop offset="0.54" style="stop-color:rgb(194,214,55);stop-opacity:1"/><stop offset="1" style="stop-color:rgb(194,214,55);stop-opacity:1"/></linearGradient>
    </defs>
</svg>
