<?xml version="1.0" encoding="UTF-8" standalone="no"?>
<!DOCTYPE svg PUBLIC "-//W3C//DTD SVG 1.1//EN" "http://www.w3.org/Graphics/SVG/1.1/DTD/svg11.dtd">
<svg width="100%" height="100%" viewBox="0 0 3544 3544" version="1.1" xmlns="http://www.w3.org/2000/svg" xmlns:xlink="http://www.w3.org/1999/xlink" xml:space="preserve" xmlns:serif="http://www.serif.com/" style="fill-rule:evenodd;clip-rule:evenodd;stroke-linejoin:round;stroke-miterlimit:1.41421;">
    <g transform="matrix(1,0,0,0.97642,0,136.105)">
        <rect x="-881.744" y="-583.092" width="5738.26" height="2528.44" style="fill:rgb(35,195,249);"/>
    </g>
    <g transform="matrix(0.976131,0,0,0.816477,95.6313,770.361)">
        <rect x="-669.006" y="1080.67" width="4675.44" height="3116.96" style="fill:url(#_Linear1);"/>
    </g>
    <path d="M1625.84,1663.39C1077.36,1674.96 502.589,1725.17 -99.01,1814.65L-99.01,1660.64C1158.97,1458.5 2402.96,1464.56 3642.32,1660.64L3642.32,1814.65C3099.5,1714.84 2524.07,1663.29 1915.24,1660.89C2804.56,2391.4 3173.25,3039.96 3492.74,3686.06L50.569,3667.69C459.583,2940.14 955.899,2253.48 1625.84,1663.39Z" style="fill:white;"/>
    <defs>
        <linearGradient id="_Linear1" x1="0" y1="0" x2="1" y2="0" gradientUnits="userSpaceOnUse" gradientTransform="matrix(4675.44,0,0,3116.96,-669.006,2639.15)"><stop offset="0" style="stop-color:rgb(67,122,53);stop-opacity:1"/><stop offset="0.48" style="stop-color:rgb(67,122,53);stop-opacity:1"/><stop offset="0.54" style="stop-color:rgb(194,214,55);stop-opacity:1"/><stop offset="1" style="stop-color:rgb(194,214,55);stop-opacity:1"/></linearGradient>
    </defs>
</svg>
